# Blender 5.1.0
# www.blender.org
mtllib TrashBox.mtl
o Cube.002
v -6.507849 12.201600 -4.368428
v 6.507849 12.201600 -4.368428
v -6.507849 -12.201600 -4.368428
v 6.507849 -12.201600 -4.368428
v -6.641440 12.201600 7.598412
v 6.374257 12.201600 9.192816
v 6.374257 -12.201600 9.192816
v -6.641440 -12.201600 7.598412
v -6.523448 -12.201600 -2.971138
v -6.556845 -12.201600 0.020572
v -6.590243 -12.201600 3.012283
v -6.590243 12.201600 3.012282
v -6.556845 12.201600 0.020572
v -6.523448 12.201600 -2.971138
v 6.492250 12.201600 -2.784970
v 6.458852 12.201600 0.605341
v 6.425454 12.201600 3.995652
v 6.425454 -12.201600 3.995652
v 6.458852 -12.201600 0.605341
v 6.492250 -12.201600 -2.784970
v -6.520168 12.201600 -3.264917
v -6.520168 -12.201600 -3.264915
v -6.527675 -12.201600 -2.592447
v -6.527675 12.201600 -2.592446
v -6.553460 -12.201600 -0.282660
v -6.553460 12.201600 -0.282663
v -6.561620 12.201600 0.389805
v -6.561620 -12.201600 0.389808
v -6.593280 12.201600 3.284347
v -6.593280 -12.201600 3.284347
v -6.585448 12.201600 2.728828
v -6.585448 -12.201600 2.728832
v 6.507849 11.744049 -4.368428
v 6.507849 -11.744049 -4.368428
v -6.507849 -11.744049 -4.368428
v -6.507849 11.744049 -4.368428
v 6.374257 11.744049 9.192816
v 6.374257 -11.744049 9.192816
v -6.641440 -11.744049 7.598412
v -6.641440 11.744049 7.598412
v 6.492249 11.744049 -2.784970
v 6.492249 -11.744049 -2.784970
v 6.458852 11.744049 0.605341
v 6.458852 -11.744049 0.605341
v 6.425453 11.744049 3.995652
v 6.425454 -11.744049 3.995652
v -6.523448 -11.744049 -2.971138
v -6.523448 11.744049 -2.971138
v -6.556845 -11.744049 0.020572
v -6.556845 11.744049 0.020572
v -6.590243 -11.744049 3.012283
v -6.590243 11.744049 3.012283
v -6.520168 -11.744049 -3.264916
v -6.520168 11.744049 -3.264916
v -6.527675 11.744049 -2.592447
v -6.527675 -11.744049 -2.592447
v -6.553460 -11.744049 -0.282661
v -6.553460 11.744049 -0.282662
v -6.561620 -11.744049 0.389807
v -6.561620 11.744049 0.389806
v -6.593280 11.744049 3.284347
v -6.593280 -11.744049 3.284347
v -6.585448 -11.744049 2.728830
v -6.585448 11.744049 2.728829
v 6.507849 11.542557 -4.368428
v -6.507849 11.542557 -4.368428
v 6.374257 11.542557 9.192816
v -6.641440 11.542557 7.598412
v 6.492249 11.542557 -2.784970
v 6.458852 11.542557 0.605341
v 6.425453 11.542557 3.995652
v -6.466241 11.542557 -2.971138
v -6.499639 11.542557 0.020572
v -6.533037 11.542557 3.012283
v -6.520168 11.542557 -3.264916
v -6.527675 11.542557 -2.681999
v -6.553460 11.542557 -0.282662
v -6.561620 11.542557 0.300254
v -6.593280 11.542557 3.284347
v -6.585448 11.542557 2.728829
v 6.507849 -11.523971 -4.368428
v 6.374257 -11.523971 9.192816
v 6.492249 -11.523971 -2.784970
v 6.458852 -11.523971 0.605341
v 6.425454 -11.523971 3.995652
v -6.527675 -11.523971 -2.681999
v -6.593280 -11.523971 3.284347
v -6.507849 -11.523971 -4.368428
v -6.641440 -11.523971 7.598412
v -6.466241 -11.523971 -2.971138
v -6.499639 -11.523971 0.020572
v -6.533037 -11.523971 3.012283
v -6.520168 -11.523971 -3.264916
v -6.553460 -11.523971 -0.282661
v -6.561620 -11.523971 0.300255
v -6.585448 -11.523971 2.728830
v 6.974019 -13.561199 2.410599
v -6.883876 -13.561193 2.410599
v 6.974020 -11.178836 2.410599
v -6.883875 -11.178832 2.410599
v 6.974020 -13.561199 0.333502
v -6.740105 -13.561193 0.333502
v -6.740104 -11.178832 0.333502
v 6.974020 -11.178836 0.333502
v -5.978312 -13.561193 2.410599
v -6.290316 -13.561193 2.410599
v -5.978310 -11.991550 3.766780
v -6.290315 -11.991550 3.766780
v -5.978312 -13.561193 0.333502
v -6.287168 -13.561193 0.333502
v -6.287167 -11.991550 -1.022679
v -5.978310 -11.991550 -1.022679
v 6.335989 -13.561199 2.410599
v 6.023985 -13.561199 2.410599
v 6.335989 -11.991556 3.766780
v 6.023985 -11.991556 3.766780
v 6.335989 -13.561199 0.333502
v 6.027133 -13.561199 0.333502
v 6.027133 -11.991556 -1.022679
v 6.335989 -11.991556 -1.022679
v -0.031284 -13.561197 2.410599
v -0.343289 -13.561197 2.410599
v -0.031284 -11.991553 3.766780
v -0.343288 -11.991553 3.766780
v -0.031284 -13.561197 0.333502
v -0.340141 -13.561197 0.333502
v -0.340140 -11.991553 -1.022679
v -0.031284 -11.991553 -1.022679
v -3.010940 -13.561196 2.410599
v -3.322944 -13.561196 2.410599
v -3.010939 -11.991552 3.766780
v -3.322943 -11.991552 3.766780
v -3.010940 -13.561196 0.333502
v -3.319796 -13.561196 0.333502
v -3.319795 -11.991552 -1.022679
v -3.010939 -11.991552 -1.022679
v 3.422681 -13.561197 2.410599
v 3.110677 -13.561197 2.410599
v 3.422681 -11.991553 3.766780
v 3.110677 -11.991553 3.766780
v 3.422681 -13.561197 0.333502
v 3.113824 -13.561197 0.333502
v 3.113825 -11.991553 -1.022679
v 3.422681 -11.991553 -1.022679
v -7.085326 13.625616 2.410599
v 6.772569 13.625616 2.410599
v -7.085326 11.243253 2.410599
v 6.772569 11.243253 2.410599
v -7.085327 13.625616 0.333502
v 6.628798 13.625616 0.333502
v 6.628798 11.243253 0.333502
v -7.085327 11.243253 0.333502
v 5.867004 13.625616 2.410599
v 6.179008 13.625616 2.410599
v 5.867003 12.055971 3.766780
v 6.179008 12.055971 3.766780
v 5.867004 13.625616 0.333502
v 6.175860 13.625616 0.333502
v 6.175859 12.055971 -1.022679
v 5.867003 12.055971 -1.022679
v -6.447297 13.625616 2.410599
v -6.135293 13.625616 2.410599
v -6.447296 12.055971 3.766780
v -6.135292 12.055971 3.766780
v -6.447297 13.625616 0.333502
v -6.138440 13.625616 0.333502
v -6.138440 12.055971 -1.022679
v -6.447296 12.055971 -1.022679
v -0.080023 13.625616 2.410599
v 0.231981 13.625616 2.410599
v -0.080023 12.055971 3.766780
v 0.231981 12.055971 3.766780
v -0.080023 13.625616 0.333502
v 0.228834 13.625616 0.333502
v 0.228833 12.055971 -1.022679
v -0.080023 12.055971 -1.022679
v 2.899632 13.625616 2.410599
v 3.211636 13.625616 2.410599
v 2.899632 12.055971 3.766780
v 3.211636 12.055971 3.766780
v 2.899632 13.625616 0.333502
v 3.208488 13.625616 0.333502
v 3.208488 12.055971 -1.022679
v 2.899632 12.055971 -1.022679
v -3.533988 13.625616 2.410599
v -3.221984 13.625616 2.410599
v -3.533988 12.055971 3.766780
v -3.221984 12.055971 3.766780
v -3.533988 13.625616 0.333502
v -3.225132 13.625616 0.333502
v -3.225132 12.055971 -1.022679
v -3.533988 12.055971 -1.022679
v -6.552520 -9.072991 7.972710
vn -0.0000 -0.0000 -1.0000
vn -0.1216 -0.0000 0.9926
vn -0.9999 -0.0000 -0.0140
vn -0.9999 -0.0000 -0.0112
vn 1.0000 -0.0000 0.0099
vn -0.0000 -1.0000 -0.0000
vn -0.0000 1.0000 -0.0000
vn -0.9999 0.0009 -0.0108
vn -0.9999 -0.0000 -0.0120
vn -0.9999 -0.0000 -0.0116
vn -0.9999 0.0013 -0.0112
vn -0.9999 -0.0000 -0.0136
vn -0.9999 0.0007 -0.0124
vn -0.9999 -0.0007 -0.0111
vn -0.9999 -0.0007 -0.0124
vn -0.9882 0.1284 0.0830
vn -0.9999 -0.0015 -0.0112
vn -0.9999 -0.0028 -0.0104
vn -1.0000 -0.0010 -0.0099
vn -0.9999 0.0008 -0.0111
vn -0.9883 0.1284 0.0822
vn -0.9999 -0.0011 -0.0107
vn -0.9999 -0.0030 -0.0114
vn -0.9999 -0.0011 -0.0108
vn -0.9881 0.1284 0.0852
vn -0.9889 0.1078 -0.1017
vn -0.9893 0.1088 -0.0973
vn -0.9851 0.1280 -0.1146
vn -0.9836 -0.1396 -0.1144
vn -0.9882 -0.1187 -0.0972
vn -0.9878 -0.1176 -0.1016
vn -0.9865 -0.1400 0.0850
vn -0.9999 0.0033 -0.0114
vn -0.9999 0.0012 -0.0108
vn -0.9867 -0.1401 0.0821
vn -0.9999 0.0030 -0.0104
vn -1.0000 0.0011 -0.0099
vn -0.9867 -0.1401 0.0829
vn -0.9764 -0.0000 -0.2162
vn -0.9782 -0.0000 -0.2078
vn -0.9763 -0.0000 -0.2164
vn -0.9836 -0.0000 0.1805
vn -0.9846 -0.0000 0.1748
vn -0.9833 -0.0000 0.1818
vn -0.0000 -0.0000 1.0000
vn 1.0000 -0.0000 -0.0000
vn -0.9976 -0.0000 -0.0691
vn -0.0000 -0.6538 0.7567
vn -0.0000 -0.6538 -0.7567
vn -1.0000 -0.0000 -0.0009
vn -1.0000 -0.0000 -0.0000
vn 0.9976 -0.0000 -0.0691
vn -0.0000 0.6538 0.7567
vn -0.0000 0.6538 -0.7567
vn 1.0000 -0.0000 -0.0009
s 1
usemtl Material.013
f 33//1 36//1 1//1 2//1
f 37//2 6//2 5//2 40//2
f 51//3 11//3 30//4 62//4
f 45//5 17//5 6//5 37//5
f 11//6 18//6 7//6 8//6 30//6
f 17//7 12//7 29//7 5//7 6//7
f 2//7 1//7 21//7 14//7 15//7
f 15//7 14//7 24//7 26//7 13//7 16//7
f 16//7 13//7 27//7 31//7 12//7 17//7
f 3//6 4//6 20//6 9//6 22//6
f 9//6 20//6 19//6 10//6 25//6 23//6
f 10//6 19//6 18//6 11//6 32//6 28//6
f 33//5 2//5 15//5 41//5
f 41//5 15//5 16//5 43//5
f 43//5 16//5 17//5 45//5
f 35//4 3//4 22//4 53//4
f 47//4 9//4 23//4 56//8
f 49//9 10//9 28//10 59//11
f 31//12 64//13 52//3 12//3
f 53//4 22//4 9//4 47//4
f 56//8 23//4 25//4 57//14
f 57//14 25//4 10//9 49//9
f 59//11 28//10 32//12 63//15
f 62//4 30//4 8//4 39//4
f 63//15 32//12 11//3 51//3
f 96//16 63//16 51//16 92//16
f 29//4 61//4 40//4 5//4
f 87//4 62//4 39//4 89//4
f 27//10 60//17 64//13 31//12
f 95//18 59//11 63//15 96//19
f 26//4 58//20 50//9 13//9
f 94//21 57//21 49//21 91//21
f 24//4 55//22 58//20 26//4
f 86//23 56//8 57//14 94//24
f 21//4 54//4 48//4 14//4
f 93//25 53//25 47//25 90//25
f 13//9 50//9 60//17 27//10
f 91//26 49//26 59//26 95//26
f 14//4 48//4 55//22 24//4
f 90//27 47//27 56//27 86//27
f 1//4 36//4 54//4 21//4
f 88//4 35//4 53//4 93//4
f 19//5 44//5 46//5 18//5
f 70//5 43//5 45//5 71//5
f 20//5 42//5 44//5 19//5
f 69//5 41//5 43//5 70//5
f 4//5 34//5 42//5 20//5
f 65//5 33//5 41//5 69//5
f 18//5 46//5 38//5 7//5
f 71//5 45//5 37//5 67//5
f 12//3 52//3 61//4 29//4
f 92//28 51//28 62//28 87//28
f 7//2 38//2 39//2 8//2
f 67//2 37//2 40//2 68//2
f 4//1 3//1 35//1 34//1
f 65//1 66//1 36//1 33//1
f 81//1 88//1 66//1 65//1
f 52//29 74//29 79//29 61//29
f 85//5 71//5 67//5 82//5
f 81//5 65//5 69//5 83//5
f 83//5 69//5 70//5 84//5
f 84//5 70//5 71//5 85//5
f 36//4 66//4 75//4 54//4
f 48//30 72//30 76//30 55//30
f 50//31 73//31 78//31 60//31
f 54//32 75//32 72//32 48//32
f 55//22 76//33 77//34 58//20
f 58//35 77//35 73//35 50//35
f 60//17 78//36 80//37 64//13
f 61//4 79//4 68//4 40//4
f 64//38 80//38 74//38 52//38
f 44//5 84//5 85//5 46//5
f 42//5 83//5 84//5 44//5
f 34//5 81//5 83//5 42//5
f 46//5 85//5 82//5 38//5
f 38//2 82//2 89//2 39//2
f 34//1 35//1 88//1 81//1
f 74//39 92//39 87//39 79//39
f 66//4 88//4 93//4 75//4
f 72//40 90//40 86//40 76//40
f 73//41 91//41 95//41 78//41
f 75//42 93//42 90//42 72//42
f 76//33 86//23 94//24 77//34
f 77//43 94//43 91//43 73//43
f 78//36 95//18 96//19 80//37
f 79//4 87//4 89//4 68//4
f 80//44 96//44 92//44 74//44
f 100//45 98//45 97//45 99//45
f 103//1 104//1 101//1 102//1
f 97//46 101//46 104//46 99//46
f 100//47 103//47 102//47 98//47
f 99//7 104//7 103//7 100//7
f 98//6 102//6 101//6 97//6
f 108//48 106//48 105//48 107//48
f 111//49 112//49 109//49 110//49
f 105//46 109//46 112//46 107//46
f 108//50 111//50 110//50 106//50
f 107//7 112//7 111//7 108//7
f 106//6 110//6 109//6 105//6
f 116//48 114//48 113//48 115//48
f 119//49 120//49 117//49 118//49
f 113//46 117//46 120//46 115//46
f 116//50 119//50 118//50 114//50
f 115//7 120//7 119//7 116//7
f 114//6 118//6 117//6 113//6
f 124//48 122//48 121//48 123//48
f 127//49 128//49 125//49 126//49
f 121//46 125//46 128//46 123//46
f 124//50 127//50 126//50 122//50
f 123//7 128//7 127//7 124//7
f 122//6 126//6 125//6 121//6
f 132//48 130//48 129//48 131//48
f 135//49 136//49 133//49 134//49
f 129//46 133//46 136//46 131//46
f 132//50 135//50 134//50 130//50
f 131//7 136//7 135//7 132//7
f 130//6 134//6 133//6 129//6
f 140//48 138//48 137//48 139//48
f 143//49 144//49 141//49 142//49
f 137//46 141//46 144//46 139//46
f 140//50 143//50 142//50 138//50
f 139//7 144//7 143//7 140//7
f 138//6 142//6 141//6 137//6
f 148//45 146//45 145//45 147//45
f 151//1 152//1 149//1 150//1
f 145//51 149//51 152//51 147//51
f 148//52 151//52 150//52 146//52
f 147//6 152//6 151//6 148//6
f 146//7 150//7 149//7 145//7
f 156//53 154//53 153//53 155//53
f 159//54 160//54 157//54 158//54
f 153//51 157//51 160//51 155//51
f 156//55 159//55 158//55 154//55
f 155//6 160//6 159//6 156//6
f 154//7 158//7 157//7 153//7
f 164//53 162//53 161//53 163//53
f 167//54 168//54 165//54 166//54
f 161//51 165//51 168//51 163//51
f 164//55 167//55 166//55 162//55
f 163//6 168//6 167//6 164//6
f 162//7 166//7 165//7 161//7
f 172//53 170//53 169//53 171//53
f 175//54 176//54 173//54 174//54
f 169//51 173//51 176//51 171//51
f 172//55 175//55 174//55 170//55
f 171//6 176//6 175//6 172//6
f 170//7 174//7 173//7 169//7
f 180//53 178//53 177//53 179//53
f 183//54 184//54 181//54 182//54
f 177//51 181//51 184//51 179//51
f 180//55 183//55 182//55 178//55
f 179//6 184//6 183//6 180//6
f 178//7 182//7 181//7 177//7
f 188//53 186//53 185//53 187//53
f 191//54 192//54 189//54 190//54
f 185//51 189//51 192//51 187//51
f 188//55 191//55 190//55 186//55
f 187//6 192//6 191//6 188//6
f 186//7 190//7 189//7 185//7
